<svg width="22" height="22" viewBox="0 0 22 22" fill="none" xmlns="http://www.w3.org/2000/svg">
<path d="M19.2507 12.8335C19.0075 12.8335 18.7744 12.9301 18.6025 13.102C18.4306 13.2739 18.334 13.507 18.334 13.7502V17.4168C18.334 17.6599 18.2374 17.8931 18.0655 18.065C17.8936 18.2369 17.6604 18.3335 17.4173 18.3335H4.58398C4.34087 18.3335 4.10771 18.2369 3.9358 18.065C3.76389 17.8931 3.66732 17.6599 3.66732 17.4168V13.7502C3.66732 13.507 3.57074 13.2739 3.39883 13.102C3.22692 12.9301 2.99377 12.8335 2.75065 12.8335C2.50754 12.8335 2.27438 12.9301 2.10247 13.102C1.93056 13.2739 1.83398 13.507 1.83398 13.7502V17.4168C1.83398 18.1462 2.12372 18.8456 2.63944 19.3614C3.15517 19.8771 3.85464 20.1668 4.58398 20.1668H17.4173C18.1467 20.1668 18.8461 19.8771 19.3619 19.3614C19.8776 18.8456 20.1673 18.1462 20.1673 17.4168V13.7502C20.1673 13.507 20.0707 13.2739 19.8988 13.102C19.7269 12.9301 19.4938 12.8335 19.2507 12.8335ZM10.3498 14.401C10.437 14.4844 10.5398 14.5499 10.6523 14.5935C10.762 14.642 10.8807 14.667 11.0007 14.667C11.1206 14.667 11.2393 14.642 11.349 14.5935C11.4615 14.5499 11.5643 14.4844 11.6515 14.401L15.3181 10.7343C15.4908 10.5617 15.5877 10.3276 15.5877 10.0835C15.5877 9.83939 15.4908 9.60527 15.3181 9.43266C15.1455 9.26005 14.9114 9.16308 14.6673 9.16308C14.4232 9.16308 14.1891 9.26005 14.0165 9.43266L11.9173 11.541V2.75016C11.9173 2.50705 11.8207 2.27389 11.6488 2.10198C11.4769 1.93007 11.2438 1.8335 11.0007 1.8335C10.7575 1.8335 10.5244 1.93007 10.3525 2.10198C10.1806 2.27389 10.084 2.50705 10.084 2.75016V11.541L7.98482 9.43266C7.89935 9.34719 7.79788 9.2794 7.68621 9.23314C7.57454 9.18689 7.45485 9.16308 7.33398 9.16308C7.21311 9.16308 7.09343 9.18689 6.98176 9.23314C6.87009 9.2794 6.76862 9.34719 6.68315 9.43266C6.59768 9.51813 6.52988 9.6196 6.48363 9.73127C6.43737 9.84294 6.41357 9.96262 6.41357 10.0835C6.41357 10.2044 6.43737 10.3241 6.48363 10.4357C6.52988 10.5474 6.59768 10.6489 6.68315 10.7343L10.3498 14.401Z" fill="#7B91B0"/>
</svg>
